HIERARCHY
ROOT Hips
{
  OFFSET 395.892 92.2501 280.516
  CHANNELS 6 Xposition Yposition Zposition Zrotation Xrotation Yrotation
  JOINT RightUpLeg
  {
    OFFSET -9.34219 -1.61394 0.0396188
    CHANNELS 3 Zrotation Xrotation Yrotation
    JOINT RightLeg
    {
      OFFSET -0.107964 -41.8835 0.0730785
      CHANNELS 3 Zrotation Xrotation Yrotation
      JOINT RightFoot
      {
        OFFSET -0.619179 -41.064 0.280306
        CHANNELS 3 Zrotation Xrotation Yrotation
        End Site
        {
          OFFSET 0 -7.69 17.5
        }
      }
    }
  }
  JOINT LeftUpLeg
  {
    OFFSET 9.31146 -1.617 0.0207408
    CHANNELS 3 Zrotation Xrotation Yrotation
    JOINT LeftLeg
    {
      OFFSET 0.0958351 -41.8678 -0.0740685
      CHANNELS 3 Zrotation Xrotation Yrotation
      JOINT LeftFoot
      {
        OFFSET 0.374571 -42.2747 -1.32837
        CHANNELS 3 Zrotation Xrotation Yrotation
        End Site
        {
          OFFSET 0 -7.69 17.5
        }
      }
    }
  }
  JOINT Spine
  {
    OFFSET -0.02688 14.3055 0.0274126
    CHANNELS 3 Zrotation Xrotation Yrotation
    JOINT Spine1
    {
      OFFSET -0.0184541 9.71448 0.00577758
      CHANNELS 3 Zrotation Xrotation Yrotation
      JOINT Spine2
      {
        OFFSET 0.040126 10.1152 -0.013275
        CHANNELS 3 Zrotation Xrotation Yrotation
        JOINT Spine3
        {
          OFFSET -0.00182381 9.71267 -0.0158471
          CHANNELS 3 Zrotation Xrotation Yrotation
          JOINT Neck
          {
            OFFSET 0.0702516 10.3806 -0.0673705
            CHANNELS 3 Zrotation Xrotation Yrotation
            JOINT Head
            {
              OFFSET -0.0630032 9.45136 -0.0589094
              CHANNELS 3 Zrotation Xrotation Yrotation
              End Site
              {
                OFFSET 0 15.95 0
              }
            }
          }
          JOINT RightShoulder
          {
            OFFSET -3.19585 6.86803 0.0812735
            CHANNELS 3 Zrotation Xrotation Yrotation
            JOINT RightArm
            {
              OFFSET -12.7354 -0.0493629 0.0382868
              CHANNELS 3 Zrotation Xrotation Yrotation
              JOINT RightForeArm
              {
                OFFSET -26.6932 0.0572621 -0.00196054
                CHANNELS 3 Zrotation Xrotation Yrotation
                JOINT RightHand
                {
                  OFFSET -25.9952 -0.0609162 -0.09405
                  CHANNELS 3 Zrotation Xrotation Yrotation
                  JOINT RightHandThumb1
                  {
                    OFFSET -2.48905 0.190105 3.12053
                    CHANNELS 3 Zrotation Xrotation Yrotation
                    JOINT RightHandThumb2
                    {
                      OFFSET -3.68274 0 0
                      CHANNELS 3 Zrotation Xrotation Yrotation
                      JOINT RightHandThumb3
                      {
                        OFFSET -2.55832 0 0
                        CHANNELS 3 Zrotation Xrotation Yrotation
                        End Site
                        {
                          OFFSET -2.194 0 0
                        }
                      }
                    }
                  }
                  JOINT RightInHandIndex
                  {
                    OFFSET -3.22368 0.508421 1.97842
                    CHANNELS 3 Zrotation Xrotation Yrotation
                    JOINT RightHandIndex1
                    {
                      OFFSET -5.21684 -0.091368 0.999158
                      CHANNELS 3 Zrotation Xrotation Yrotation
                      JOINT RightHandIndex2
                      {
                        OFFSET -3.61937 0 0
                        CHANNELS 3 Zrotation Xrotation Yrotation
                        JOINT RightHandIndex3
                        {
                          OFFSET -2.0521 0 0
                          CHANNELS 3 Zrotation Xrotation Yrotation
                          End Site
                          {
                            OFFSET -1.805 0 0
                          }
                        }
                      }
                    }
                  }
                  JOINT RightInHandMiddle
                  {
                    OFFSET -3.38211 0.517263 0.756737
                    CHANNELS 3 Zrotation Xrotation Yrotation
                    JOINT RightHandMiddle1
                    {
                      OFFSET -5.17411 -0.084 0.313895
                      CHANNELS 3 Zrotation Xrotation Yrotation
                      JOINT RightHandMiddle2
                      {
                        OFFSET -3.94947 0 0
                        CHANNELS 3 Zrotation Xrotation Yrotation
                        JOINT RightHandMiddle3
                        {
                          OFFSET -2.47579 0 0
                          CHANNELS 3 Zrotation Xrotation Yrotation
                          End Site
                          {
                            OFFSET -1.975 0 0
                          }
                        }
                      }
                    }
                  }
                  JOINT RightInHandRing
                  {
                    OFFSET -3.36516 0.537895 -0.128947
                    CHANNELS 3 Zrotation Xrotation Yrotation
                    JOINT RightHandRing1
                    {
                      OFFSET -4.63474 -0.022105 -0.478947
                      CHANNELS 3 Zrotation Xrotation Yrotation
                      JOINT RightHandRing2
                      {
                        OFFSET -3.44238 0 0
                        CHANNELS 3 Zrotation Xrotation Yrotation
                        JOINT RightHandRing3
                        {
                          OFFSET -2.3881 0 0
                          CHANNELS 3 Zrotation Xrotation Yrotation
                          End Site
                          {
                            OFFSET -1.857 0 0
                          }
                        }
                      }
                    }
                  }
                  JOINT RightInHandPinky
                  {
                    OFFSET -3.16105 0.469368 -1.20179
                    CHANNELS 3 Zrotation Xrotation Yrotation
                    JOINT RightHandPinky1
                    {
                      OFFSET -4.14105 -0.022105 -1.09053
                      CHANNELS 3 Zrotation Xrotation Yrotation
                      JOINT RightHandPinky2
                      {
                        OFFSET -2.75653 0 0
                        CHANNELS 3 Zrotation Xrotation Yrotation
                        JOINT RightHandPinky3
                        {
                          OFFSET -1.74189 0 0
                          CHANNELS 3 Zrotation Xrotation Yrotation
                          End Site
                          {
                            OFFSET -1.645 0 0
                          }
                        }
                      }
                    }
                  }
                }
              }
            }
          }
          JOINT LeftShoulder
          {
            OFFSET 3.22619 6.92614 -0.0284522
            CHANNELS 3 Zrotation Xrotation Yrotation
            JOINT LeftArm
            {
              OFFSET 12.7394 -0.0545679 0.00613785
              CHANNELS 3 Zrotation Xrotation Yrotation
              JOINT LeftForeArm
              {
                OFFSET 26.5544 -0.166587 0.113242
                CHANNELS 3 Zrotation Xrotation Yrotation
                JOINT LeftHand
                {
                  OFFSET 26.0062 -0.049885 -0.0701344
                  CHANNELS 3 Zrotation Xrotation Yrotation
                  JOINT LeftHandThumb1
                  {
                    OFFSET 2.48905 0.190105 3.12053
                    CHANNELS 3 Zrotation Xrotation Yrotation
                    JOINT LeftHandThumb2
                    {
                      OFFSET 3.68274 0 0
                      CHANNELS 3 Zrotation Xrotation Yrotation
                      JOINT LeftHandThumb3
                      {
                        OFFSET 2.55832 0 0
                        CHANNELS 3 Zrotation Xrotation Yrotation
                        End Site
                        {
                          OFFSET 2.194 0 0
                        }
                      }
                    }
                  }
                  JOINT LeftInHandIndex
                  {
                    OFFSET 3.22368 0.508421 1.97842
                    CHANNELS 3 Zrotation Xrotation Yrotation
                    JOINT LeftHandIndex1
                    {
                      OFFSET 5.21684 -0.091368 0.999158
                      CHANNELS 3 Zrotation Xrotation Yrotation
                      JOINT LeftHandIndex2
                      {
                        OFFSET 3.61937 0 0
                        CHANNELS 3 Zrotation Xrotation Yrotation
                        JOINT LeftHandIndex3
                        {
                          OFFSET 2.0521 0 0
                          CHANNELS 3 Zrotation Xrotation Yrotation
                          End Site
                          {
                            OFFSET 1.805 0 0
                          }
                        }
                      }
                    }
                  }
                  JOINT LeftInHandMiddle
                  {
                    OFFSET 3.38211 0.517263 0.756737
                    CHANNELS 3 Zrotation Xrotation Yrotation
                    JOINT LeftHandMiddle1
                    {
                      OFFSET 5.17411 -0.084 0.313895
                      CHANNELS 3 Zrotation Xrotation Yrotation
                      JOINT LeftHandMiddle2
                      {
                        OFFSET 3.94947 0 0
                        CHANNELS 3 Zrotation Xrotation Yrotation
                        JOINT LeftHandMiddle3
                        {
                          OFFSET 2.47579 0 0
                          CHANNELS 3 Zrotation Xrotation Yrotation
                          End Site
                          {
                            OFFSET 1.975 0 0
                          }
                        }
                      }
                    }
                  }
                  JOINT LeftInHandRing
                  {
                    OFFSET 3.36516 0.537895 -0.128947
                    CHANNELS 3 Zrotation Xrotation Yrotation
                    JOINT LeftHandRing1
                    {
                      OFFSET 4.63474 -0.022105 -0.478947
                      CHANNELS 3 Zrotation Xrotation Yrotation
                      JOINT LeftHandRing2
                      {
                        OFFSET 3.44238 0 0
                        CHANNELS 3 Zrotation Xrotation Yrotation
                        JOINT LeftHandRing3
                        {
                          OFFSET 2.3881 0 0
                          CHANNELS 3 Zrotation Xrotation Yrotation
                          End Site
                          {
                            OFFSET 1.857 0 0
                          }
                        }
                      }
                    }
                  }
                  JOINT LeftInHandPinky
                  {
                    OFFSET 3.16105 0.469368 -1.20179
                    CHANNELS 3 Zrotation Xrotation Yrotation
                    JOINT LeftHandPinky1
                    {
                      OFFSET 4.14105 -0.022105 -1.09053
                      CHANNELS 3 Zrotation Xrotation Yrotation
                      JOINT LeftHandPinky2
                      {
                        OFFSET 2.75653 0 0
                        CHANNELS 3 Zrotation Xrotation Yrotation
                        JOINT LeftHandPinky3
                        {
                          OFFSET 1.74189 0 0
                          CHANNELS 3 Zrotation Xrotation Yrotation
                          End Site
                          {
                            OFFSET 1.645 0 0
                          }
                        }
                      }
                    }
                  }
                }
              }
            }
          }
        }
      }
    }
  }
}
MOTION
Frames:	4
Frame Time:	0.00833333
388.13 84.8545 259.964 23.677 1.81474 -111.149 35.785 -45.931 51.3745 -2.94305 28.6681 -18.3302 8.24099 6.38512 45.8498 35.2973 -25.6836 18.3666 -20.1133 50.5344 21.5248 -1.71524 -21.8867 41.5643 -6.23465 4.37694 -20.9174 -1.70937 0.410571 -5.42519 -2.79611 0.347124 -8.62352 -0.488109 -0.477231 2.69819 -0.106155 -6.54535 41.3764 -7.31493 2.39751 25.3298 4.90277 -2.03424 -19.6382 48.6676 -57.568 28.9644 26.2727 -12.2912 132.341 5.59279 -5.3019 0.560934 28.184 10.7294 19.1592 2.46587e-16 -3.18055e-15 -10 5.11392e-15 9.54166e-15 -10 -0 0 3.18055e-15 19.9818 0.871897 2.3964 24 -1.59028e-14 -5.56597e-15 20 -3.18055e-15 -3.18055e-15 -0 0 3.18055e-15 20 -3.18055e-15 1.59028e-15 24 -3.18055e-15 7.95139e-16 20 3.18055e-15 1.59028e-15 -0 0 3.18055e-15 19.9748 -1.02565 -2.81938 24 3.18055e-15 -5.56597e-15 20 -3.18055e-15 -3.18055e-15 -0 0 3.18055e-15 19.7815 -3.00948 -8.30515 24 -6.36111e-15 -1.59028e-15 20 0 3.18055e-15 10.9202 -12.365 -38.1802 -2.63697 8.21346 -118.351 23.0776 -25.8569 -51.5689 -1.02564 14.9682 -22.3784 -28.184 10.7294 -19.1592 -3.22962e-15 0 10 2.48986e-15 -9.54166e-15 10 -3.18055e-15 -3.18055e-15 3.18055e-15 -19.9818 0.871897 -2.3964 -24 -1.27222e-14 1.9133e-15 -20 6.36111e-15 3.18055e-15 -3.18055e-15 -3.18055e-15 3.18055e-15 -20 9.54166e-15 6.36111e-15 -24 -3.18055e-15 4.77083e-15 -20 6.36111e-15 -1.59028e-15 -3.18055e-15 -3.18055e-15 3.18055e-15 -19.9748 -1.02565 2.81938 -24 3.18055e-15 1.59028e-15 -20 0 -1.59028e-15 -3.18055e-15 -3.18055e-15 3.18055e-15 -19.7815 -3.00948 8.30515 -24 3.18055e-15 7.95139e-16 -20 -6.36111e-15 -1.59028e-15 
388.221 84.8788 260.082 23.9932 2.00877 -111.209 36.2108 -46.133 51.6064 -2.95415 28.6946 -18.2066 8.35316 6.25196 45.6721 35.6057 -26.0718 18.6604 -19.7979 50.8516 21.0977 -1.84323 -21.7724 41.7349 -6.04742 4.25327 -20.8917 -1.65804 0.400921 -5.41179 -2.71296 0.341775 -8.6057 -0.48796 -0.476105 2.69832 -0.115671 -6.48895 41.2243 -7.27047 2.36882 25.4123 4.83738 -2.11273 -19.6181 48.9314 -57.3924 28.9395 26.0556 -12.3772 132.339 5.66207 -5.17433 0.792943 28.184 10.7294 19.1592 -1.8614e-15 3.18055e-15 -10 -8.6796e-15 0 -10 4.77083e-15 0 -4.77083e-15 19.9818 0.871897 2.3964 24 -3.18055e-15 5.96354e-15 20 6.36111e-15 1.59028e-15 4.77083e-15 0 -4.77083e-15 20 3.18055e-15 3.18055e-15 24 -3.18055e-15 3.18055e-15 20 0 3.18055e-15 4.77083e-15 0 -4.77083e-15 19.9748 -1.02565 -2.81938 24 3.18055e-15 -7.95139e-16 20 0 -0 4.77083e-15 0 -4.77083e-15 19.7815 -3.00948 -8.30515 24 3.18055e-15 7.95139e-15 20 -6.36111e-15 -3.18055e-15 10.9728 -12.3252 -38.3443 -2.68941 8.22761 -118.278 23.2363 -25.5769 -50.991 -0.942074 14.9463 -22.7602 -28.184 10.7294 -19.1592 -3.22962e-15 0 10 -3.1423e-16 6.36111e-15 10 -3.18055e-15 0 3.18055e-15 -19.9818 0.871897 -2.3964 -24 9.54166e-15 -1.61241e-15 -20 -3.18055e-15 -1.59028e-15 -3.18055e-15 0 3.18055e-15 -20 6.36111e-15 -7.95139e-15 -24 0 1.39149e-15 -20 3.18055e-15 -0 -3.18055e-15 0 3.18055e-15 -19.9748 -1.02565 2.81938 -24 -6.36111e-15 3.97569e-16 -20 9.54166e-15 -0 -3.18055e-15 0 3.18055e-15 -19.7815 -3.00948 8.30515 -24 0 3.18055e-15 -20 -3.18055e-15 -3.18055e-15 
388.327 84.9023 260.215 24.1638 2.08408 -111.192 36.3516 -46.3083 51.7047 -2.95144 28.7298 -18.0816 8.47075 6.18101 45.5002 35.6834 -26.4566 18.8666 -19.5 51.1084 20.844 -1.895 -21.4812 41.7428 -5.9475 4.19852 -20.8821 -1.63104 0.39794 -5.40624 -2.66914 0.342009 -8.5986 -0.48797 -0.475187 2.69835 -0.128369 -6.45671 41.0533 -7.25849 2.34815 25.4987 4.78016 -2.17815 -19.5825 49.2531 -57.2181 28.9793 25.831 -12.4572 132.298 5.75276 -5.06082 1.04425 28.184 10.7294 19.1592 -2.98303e-15 -3.18055e-15 -10 1.05399e-15 -3.18055e-15 -10 3.18055e-15 0 -0 19.9818 0.871897 2.3964 24 -6.36111e-15 -3.97569e-15 20 -6.36111e-15 1.59028e-15 3.18055e-15 0 -0 20 -3.18055e-15 -1.59028e-15 24 6.36111e-15 7.95139e-16 20 0 -0 3.18055e-15 0 -0 19.9748 -1.02565 -2.81938 24 3.18055e-15 2.38542e-15 20 -6.36111e-15 -0 3.18055e-15 0 -0 19.7815 -3.00948 -8.30515 24 -3.18055e-15 -4.77083e-15 20 3.18055e-15 -3.18055e-15 11.0605 -12.3097 -38.3937 -2.77852 8.24134 -118.279 23.371 -25.3733 -50.6575 -0.993697 14.9735 -22.8653 -28.184 10.7294 -19.1592 -6.59453e-15 1.90833e-14 10 -2.17563e-15 3.18055e-15 10 -3.18055e-15 3.18055e-15 -0 -19.9818 0.871897 -2.3964 -24 3.18055e-15 2.41026e-15 -20 0 1.59028e-15 -3.18055e-15 3.18055e-15 -0 -20 9.54166e-15 -0 -24 -3.18055e-15 2.98177e-15 -20 -9.54166e-15 3.18055e-15 -3.18055e-15 3.18055e-15 -0 -19.9748 -1.02565 2.81938 -24 6.36111e-15 1.98785e-15 -20 0 4.77083e-15 -3.18055e-15 3.18055e-15 -0 -19.7815 -3.00948 8.30515 -24 -3.18055e-15 4.77083e-15 -20 0 4.77083e-15 
388.447 84.9246 260.354 24.3926 2.10942 -111.156 36.517 -46.5434 51.8552 -3.1845 28.8194 -17.4676 8.83699 6.05109 44.9406 35.7291 -26.9403 19.1361 -19.1358 51.3945 20.51 -1.90631 -21.1859 41.7659 -5.86221 4.10696 -20.8614 -1.6065 0.386238 -5.39683 -2.62952 0.328667 -8.58547 -0.488121 -0.474464 2.69828 -0.146393 -6.43309 40.8297 -7.26035 2.31502 25.6068 4.76301 -2.21832 -19.5681 49.6946 -57.0318 29.1743 25.6026 -12.5209 132.243 5.86072 -4.95712 1.27293 28.184 10.7294 19.1592 4.5302e-15 -6.36111e-15 -10 3.36383e-15 -9.54166e-15 -10 -3.18055e-15 -3.18055e-15 3.18055e-15 19.9818 0.871897 2.3964 24 0 -1.59028e-15 20 0 3.18055e-15 -3.18055e-15 -3.18055e-15 3.18055e-15 20 9.54166e-15 -7.15625e-15 24 0 -1.59028e-15 20 -6.36111e-15 -0 -3.18055e-15 -3.18055e-15 3.18055e-15 19.9748 -1.02565 -2.81938 24 -3.18055e-15 -7.95139e-16 20 0 -0 -3.18055e-15 -3.18055e-15 3.18055e-15 19.7815 -3.00948 -8.30515 24 -3.18055e-15 1.59028e-15 20 0 -3.18055e-15 11.3558 -12.1829 -38.3551 -2.94012 8.06703 -118.305 23.5157 -25.1561 -50.3306 -1.06952 15.0022 -22.9498 -28.184 10.7294 -19.1592 -3.79044e-15 3.18055e-15 10 -5.60818e-16 3.18055e-15 10 6.36111e-15 0 3.18055e-15 -19.9818 0.871897 -2.3964 -24 6.36111e-15 6.36111e-15 -20 3.18055e-15 3.18055e-15 6.36111e-15 0 3.18055e-15 -20 6.36111e-15 1.59028e-15 -24 -9.54166e-15 -2.78299e-15 -20 0 1.59028e-15 6.36111e-15 0 3.18055e-15 -19.9748 -1.02565 2.81938 -24 -3.18055e-15 -1.19271e-15 -20 3.18055e-15 3.18055e-15 6.36111e-15 0 3.18055e-15 -19.7815 -3.00948 8.30515 -24 -3.18055e-15 -0 -20 -3.18055e-15 -1.59028e-15 
